# Blender 5.2.1 LTS
# www.blender.org
mtllib Untitled.mtl
o Gun
v -0.500000 -0.500000 0.319161
v 0.500000 -0.500000 0.319161
v -0.252314 1.775605 0.319161
v 0.747686 1.775605 0.319161
v -0.252314 1.775605 -0.319161
v 0.747686 1.775605 -0.319161
v -0.500000 -0.500000 -0.319161
v 0.500000 -0.500000 -0.319161
v -0.252314 2.476354 0.319161
v 0.747686 2.476354 0.319161
v 0.747686 2.476354 -0.319161
v -0.252314 2.476354 -0.319161
v 4.276664 1.775605 0.319160
v 4.276664 1.775605 -0.319160
v 4.276664 2.476354 -0.319160
v 4.276664 2.476354 0.319160
v 4.305700 1.977395 0.168773
v 4.305700 1.977395 -0.168773
v 4.305700 2.274564 -0.168773
v 4.305700 2.274564 0.168773
v 4.434474 1.977395 0.168773
v 4.434474 1.977395 -0.168773
v 4.434474 2.274564 -0.168773
v 4.434474 2.274564 0.168773
v 1.764547 1.775605 0.319160
v 1.764548 2.476354 0.319160
v 1.764548 2.476354 -0.319160
v 1.764547 1.775605 -0.319160
v 1.473661 1.775605 0.319161
v 1.473661 2.476354 0.319161
v 1.473661 2.476354 -0.319161
v 1.473661 1.775605 -0.319161
v 0.694570 1.289387 0.319161
v -0.305430 1.289387 0.319161
v -0.305430 1.289387 -0.319161
v 0.694570 1.289387 -0.319161
v 0.670979 1.072649 0.319161
v -0.329021 1.072649 0.319161
v -0.329021 1.072649 -0.319161
v 0.670979 1.072649 -0.319161
v 1.260638 1.322451 -0.319161
v 1.135382 1.436604 -0.319161
v 1.135382 1.436604 0.319161
v 1.260638 1.322451 0.319161
v 0.843983 1.775605 0.319161
v 0.843983 2.476354 0.319161
v 0.843983 2.476354 -0.319161
v 0.843983 1.775605 -0.319161
v 0.996640 1.775605 0.319161
v 0.996640 2.476354 0.319161
v 0.996640 2.476354 -0.319161
v 0.996640 1.775605 -0.319161
v 0.875376 1.775605 -0.187891
v 0.875376 1.775605 0.187891
v 0.965246 1.775605 -0.187891
v 0.965246 1.775605 0.187891
v 0.994566 1.553966 -0.187891
v 0.994566 1.553966 0.187891
v 1.084436 1.553966 -0.187891
v 1.084436 1.553966 0.187891
vn -0.6106 -0.5478 0.5719
vn 0.5424 -0.6046 0.5833
vn 0.4348 -0.3232 0.8405
vn -0.7030 0.0765 0.7071
vn -0.5774 0.5774 0.5774
vn -0.0000 0.7071 0.7071
vn -0.0000 0.7071 -0.7071
vn -0.5774 0.5774 -0.5774
vn -0.7030 0.0765 -0.7071
vn 0.4348 -0.3232 -0.8405
vn 0.5424 -0.6046 -0.5833
vn -0.6106 -0.5478 -0.5719
vn -0.6934 0.0378 0.7195
vn 0.3024 -0.3372 0.8915
vn 0.5774 -0.5774 0.5774
vn 0.5774 -0.5774 -0.5774
vn 0.5774 0.5774 -0.5774
vn 0.5774 0.5774 0.5774
vn 0.3024 -0.3372 -0.8915
vn -0.6934 0.0378 -0.7195
vn -0.0000 -0.7071 -0.7071
vn -0.0000 -0.7071 0.7071
vn 0.5454 -0.5945 0.5909
vn 0.5454 -0.5945 -0.5909
vn 0.8574 -0.3490 -0.3783
vn 0.8574 -0.3490 0.3783
vn 0.5454 0.5945 -0.5909
vn 0.8574 0.3490 -0.3783
vn 0.5454 0.5945 0.5909
vn 0.8574 0.3490 0.3783
vn 0.2162 -0.5636 0.7973
vn 0.2162 -0.5636 -0.7973
vn -0.1976 -0.0820 0.9768
vn -0.1976 -0.0820 -0.9768
vn -0.7030 0.0767 0.7071
vn 0.1965 0.2436 0.9498
vn -0.7030 0.0767 -0.7071
vn 0.1965 0.2436 -0.9498
vn -0.3420 0.5508 0.7613
vn 0.3953 -0.6267 0.6715
vn -0.3414 0.5514 -0.7612
vn 0.3958 -0.6241 -0.6737
vn -0.4074 -0.6816 0.6078
vn -0.4074 -0.6816 -0.6078
vn 0.7136 -0.4265 -0.5557
vn 0.7136 -0.4265 0.5557
vn -0.2414 -0.9520 -0.1880
vn -0.2414 -0.9520 0.1880
vn 0.2955 -0.8476 -0.4409
vn 0.2955 -0.8476 0.4409
vt 0.423598 0.670622
vt 0.429946 0.539379
vt 0.638031 0.521617
vt 0.639984 0.656766
vt 0.559117 0.958795
vt 0.550242 0.862183
vt 0.640251 0.862183
vt 0.643701 0.958795
vt 0.221757 0.024110
vt 0.221269 0.161700
vt -0.000000 0.141009
vt 0.000000 -0.000000
vt 0.359078 0.450422
vt 0.359078 0.457003
vt 0.354860 0.457003
vt 0.354860 0.450422
vt 0.350642 0.450422
vt 0.354860 0.460771
vt 0.350642 0.460771
vt 0.391569 0.545578
vt 0.385305 0.545578
vt 0.385305 0.530056
vt 0.391569 0.530056
vt 0.740572 0.638626
vt 0.740572 0.497617
vt 0.839384 0.497617
vt 0.839384 0.638626
vt 0.537825 0.068452
vt 0.537825 0.078631
vt 0.528868 0.078631
vt 0.528868 0.068452
vt 0.320880 0.175935
vt 0.320880 0.034926
vt 0.419692 0.034926
vt 0.419692 0.175935
vt 0.346259 0.395031
vt 0.372066 0.500287
vt 0.354744 0.509827
vt 0.373376 0.509827
vt 0.399459 0.596055
vt 0.391671 0.596055
vt 0.391671 0.594885
vt 0.399459 0.594885
vt 0.419692 0.189513
vt 0.320880 0.189513
vt 0.391231 0.356871
vt 0.364697 0.378391
vt 0.740572 0.484038
vt 0.839384 0.484038
vt 0.490267 0.342576
vt 0.580276 0.342576
vt 0.559070 0.370880
vt 0.511473 0.370880
vt 0.580276 0.441334
vt 0.559070 0.412761
vt 0.490267 0.441334
vt 0.511473 0.412761
vt 0.270643 0.915577
vt 0.270643 0.929446
vt 0.265374 0.929446
vt 0.265374 0.915577
vt 0.281753 0.915577
vt 0.281753 0.927787
vt 0.276461 0.927787
vt 0.276461 0.915577
vt 0.271170 0.915577
vt 0.271170 0.929446
vt 0.271170 0.927787
vt 0.271170 0.915577
vt 0.276461 0.915577
vt 0.276461 0.927787
vt 0.839384 0.354230
vt 0.740572 0.354230
vt 0.740572 0.000000
vt 0.839384 0.000000
vt 0.608261 0.484151
vt 0.466576 0.484151
vt 0.466576 0.002239
vt 0.608261 0.002239
vt 0.320880 0.319321
vt 0.419692 0.319321
vt 0.419692 0.673551
vt 0.320880 0.673551
vt 0.389974 0.426477
vt 0.394192 0.426477
vt 0.394192 0.443008
vt 0.389974 0.443008
vt 0.839384 0.395248
vt 0.740572 0.395248
vt 0.315926 0.387641
vt 0.309660 0.392723
vt 0.320880 0.278304
vt 0.419692 0.278304
vt 0.670546 0.653440
vt 0.668593 0.518290
vt 0.737643 0.503964
vt 0.739107 0.645950
vt 0.391569 0.527916
vt 0.385305 0.527916
vt 0.356547 0.417862
vt 0.362810 0.417862
vt 0.320880 0.031508
vt 0.320880 0.172517
vt 0.252319 0.165027
vt 0.252319 0.024018
vt 0.371125 0.596055
vt 0.371125 0.588267
vt 0.377033 0.588267
vt 0.377033 0.596055
vt 0.251343 0.023530
vt 0.240600 0.160632
vt 0.692770 0.442948
vt 0.676674 0.425286
vt 0.381560 0.588267
vt 0.381560 0.596055
vt 0.256982 0.248265
vt 0.273078 0.230603
vt 0.389974 0.422890
vt 0.394192 0.422890
vt 0.221757 0.165118
vt 0.252319 0.168445
vt 0.383883 0.588267
vt 0.383883 0.596055
vt 0.672011 0.505107
vt 0.641449 0.508433
vt 0.389974 0.418861
vt 0.394192 0.418861
vt 0.740572 0.462512
vt 0.839384 0.462512
vt 0.316712 0.387004
vt 0.316521 0.387158
vt 0.419692 0.211039
vt 0.320880 0.211039
vt 0.369291 0.616517
vt 0.369291 0.611320
vt 0.370529 0.611320
vt 0.370529 0.616517
vt 0.399459 0.593030
vt 0.391671 0.593030
vt 0.391671 0.587233
vt 0.399459 0.587233
vt 0.393273 0.594503
vt 0.397857 0.594503
vt 0.393273 0.593411
vt 0.399820 0.613088
vt 0.408647 0.613088
vt 0.406832 0.613520
vt 0.401635 0.613520
vt 0.397857 0.593411
vt 0.373415 0.611320
vt 0.373415 0.616517
vt 0.358577 0.612448
vt 0.359671 0.613037
vt 0.359671 0.616517
vt 0.358577 0.615928
vt 0.371125 0.591470
vt 0.368375 0.596055
vt 0.368375 0.591470
vt 0.354318 0.592984
vt 0.355284 0.592465
vt 0.355284 0.595535
vt 0.354318 0.596055
s 1
usemtl initialShadingGroup
f 1/1/1 2/2/2 37/3/3 38/4/4
f 9/5/5 10/6/6 11/7/7 12/8/8
f 39/9/9 40/10/10 8/11/11 7/12/12
f 7/13/12 8/14/11 2/15/2 1/16/1
f 2/17/2 8/16/11 40/18/10 37/19/3
f 7/20/12 1/21/1 38/22/4 39/23/9
f 3/24/13 4/25/14 10/26/6 9/27/5
f 21/28/15 22/29/16 23/30/17 24/31/18
f 6/32/19 5/33/20 12/34/8 11/35/7
f 5/36/20 3/37/13 9/38/5 12/39/8
f 4/40/14 6/41/19 48/42/21 45/43/22
f 6/32/19 11/35/7 47/44/7 48/45/21
f 11/46/7 10/46/6 46/47/6 47/47/7
f 10/26/6 4/25/14 45/48/22 46/49/6
f 13/50/23 14/51/24 18/52/25 17/53/26
f 14/51/24 15/54/27 19/55/28 18/52/25
f 15/54/27 16/56/29 20/57/30 19/55/28
f 16/56/29 13/50/23 17/53/26 20/57/30
f 17/58/26 18/59/25 22/60/16 21/61/15
f 18/62/25 19/63/28 23/64/17 22/65/16
f 19/59/28 20/58/30 24/66/18 23/67/17
f 20/68/30 17/69/26 21/70/15 24/71/18
f 26/72/6 25/73/31 13/74/23 16/75/29
f 27/76/7 26/77/6 16/78/29 15/79/27
f 28/80/32 27/81/7 15/82/27 14/83/24
f 25/84/31 28/85/32 14/86/24 13/87/23
f 30/88/6 29/89/33 25/73/31 26/72/6
f 31/90/7 30/90/6 26/91/6 27/91/7
f 32/92/34 31/93/7 27/81/7 28/80/32
f 34/94/35 33/95/36 4/96/14 3/97/13
f 35/98/37 34/99/35 3/100/13 5/101/20
f 5/102/20 6/103/19 36/104/38 35/105/37
f 33/106/36 36/107/38 6/108/19 4/109/14
f 38/4/4 37/3/3 33/95/36 34/94/35
f 39/23/9 38/22/4 34/99/35 35/98/37
f 35/110/37 36/111/38 40/10/10 39/9/9
f 25/73/31 29/89/33 43/112/39 44/113/40
f 29/109/33 32/108/34 42/114/41 43/115/39
f 32/92/34 28/80/32 41/116/42 42/117/41
f 28/85/32 25/84/31 44/118/40 41/119/42
f 42/117/41 41/116/42 40/120/10 36/121/38
f 43/115/39 42/114/41 36/122/38 33/123/36
f 44/113/40 43/112/39 33/124/36 37/125/3
f 41/119/42 44/118/40 37/126/3 40/127/10
f 46/49/6 45/48/22 49/128/22 50/129/6
f 47/130/7 46/130/6 50/131/6 51/131/7
f 48/45/21 47/44/7 51/132/7 52/133/21
f 58/134/43 57/135/44 59/136/45 60/137/46
f 50/129/6 49/128/22 29/89/33 30/88/6
f 51/131/7 50/131/6 30/90/6 31/90/7
f 52/133/21 51/132/7 31/93/7 32/92/34
f 49/138/22 52/139/21 32/140/34 29/141/33
f 45/43/22 48/42/21 53/142/47 54/143/48
f 48/42/21 52/139/21 55/144/49 53/142/47
f 52/145/21 49/146/22 56/147/50 55/148/49
f 49/138/22 45/43/22 54/143/48 56/149/50
f 54/137/48 53/136/47 57/150/44 58/151/43
f 53/152/47 55/153/49 59/154/45 57/155/44
f 55/156/49 56/106/50 60/157/46 59/158/45
f 56/159/50 54/160/48 58/161/43 60/162/46
