# This file uses centimeters as units for non-parametric coordinates.

mtllib Gun.mtl
g default
v -0.500000 -0.500000 0.319161
v 0.500000 -0.500000 0.319161
v -0.252314 1.775605 0.319161
v 0.747686 1.775605 0.319161
v -0.252314 1.775605 -0.319161
v 0.747686 1.775605 -0.319161
v -0.500000 -0.500000 -0.319161
v 0.500000 -0.500000 -0.319161
v -0.252314 2.476354 0.319161
v 0.747686 2.476354 0.319161
v 0.747686 2.476354 -0.319161
v -0.252314 2.476354 -0.319161
v 4.276664 1.775605 0.319160
v 4.276664 1.775605 -0.319160
v 4.276664 2.476354 -0.319160
v 4.276664 2.476354 0.319160
v 4.305700 1.977395 0.168773
v 4.305700 1.977395 -0.168773
v 4.305700 2.274564 -0.168773
v 4.305700 2.274564 0.168773
v 4.434474 1.977395 0.168773
v 4.434474 1.977395 -0.168773
v 4.434474 2.274564 -0.168773
v 4.434474 2.274564 0.168773
v 1.764547 1.775605 0.319160
v 1.764548 2.476354 0.319160
v 1.764548 2.476354 -0.319160
v 1.764547 1.775605 -0.319160
v 1.473661 1.775605 0.319161
v 1.473661 2.476354 0.319161
v 1.473661 2.476354 -0.319161
v 1.473661 1.775605 -0.319161
v 0.694570 1.289387 0.319161
v -0.305430 1.289387 0.319161
v -0.305430 1.289387 -0.319161
v 0.694570 1.289387 -0.319161
v 0.670979 1.072649 0.319161
v -0.329021 1.072649 0.319161
v -0.329021 1.072649 -0.319161
v 0.670979 1.072649 -0.319161
v 1.260638 1.322451 -0.319161
v 1.135382 1.436604 -0.319161
v 1.135382 1.436604 0.319161
v 1.260638 1.322451 0.319161
v 0.843983 1.775605 0.319161
v 0.843983 2.476354 0.319161
v 0.843983 2.476354 -0.319161
v 0.843983 1.775605 -0.319161
v 0.996640 1.775605 0.319161
v 0.996640 2.476354 0.319161
v 0.996640 2.476354 -0.319161
v 0.996640 1.775605 -0.319161
v 0.875376 1.775605 -0.187891
v 0.875376 1.775605 0.187891
v 0.965246 1.775605 -0.187891
v 0.965246 1.775605 0.187891
v 0.994566 1.553966 -0.187891
v 0.994566 1.553966 0.187891
v 1.084436 1.553966 -0.187891
v 1.084436 1.553966 0.187891
vt 0.375000 0.000000
vt 0.625000 0.000000
vt 0.375000 0.250000
vt 0.625000 0.250000
vt 0.375000 0.500000
vt 0.625000 0.500000
vt 0.375000 0.750000
vt 0.625000 0.750000
vt 0.375000 1.000000
vt 0.625000 1.000000
vt 0.875000 0.000000
vt 0.875000 0.250000
vt 0.125000 0.000000
vt 0.125000 0.250000
vt 0.375000 0.250000
vt 0.625000 0.250000
vt 0.625000 0.500000
vt 0.375000 0.500000
vt 0.625000 0.250000
vt 0.625000 0.500000
vt 0.625000 0.500000
vt 0.625000 0.250000
vt 0.625000 0.250000
vt 0.625000 0.500000
vt 0.625000 0.500000
vt 0.625000 0.250000
vt 0.625000 0.250000
vt 0.625000 0.500000
vt 0.625000 0.500000
vt 0.625000 0.250000
vt 0.625000 0.250000
vt 0.625000 0.250000
vt 0.625000 0.500000
vt 0.625000 0.500000
vt 0.625000 0.250000
vt 0.625000 0.250000
vt 0.625000 0.500000
vt 0.625000 0.500000
vt 0.625000 0.218899
vt 0.375000 0.218899
vt 0.125000 0.218899
vt 0.375000 0.531101
vt 0.625000 0.531101
vt 0.875000 0.218899
vt 0.625000 0.195087
vt 0.375000 0.195087
vt 0.125000 0.195087
vt 0.375000 0.554913
vt 0.625000 0.554913
vt 0.875000 0.195087
vt 0.625000 0.528922
vt 0.756671 0.339407
vt 0.756671 0.351948
vt 0.625000 0.516381
vt 0.625000 0.233619
vt 0.625000 0.221078
vt 0.625000 0.250000
vt 0.625000 0.250000
vt 0.625000 0.500000
vt 0.625000 0.500000
vt 0.625000 0.250000
vt 0.625000 0.250000
vt 0.625000 0.500000
vt 0.625000 0.500000
vt 0.625000 0.250000
vt 0.625000 0.500000
vt 0.625000 0.500000
vt 0.625000 0.250000
vt 0.625000 0.250000
vt 0.625000 0.500000
vt 0.625000 0.500000
vt 0.625000 0.250000
vn 0.000000 0.000000 1.000000
vn 0.000000 0.000000 1.000000
vn 0.000000 0.000000 1.000000
vn 0.000000 0.000000 1.000000
vn 0.000000 1.000000 0.000000
vn 0.000000 1.000000 0.000000
vn 0.000000 1.000000 0.000000
vn 0.000000 1.000000 0.000000
vn 0.000000 0.000000 -1.000000
vn 0.000000 0.000000 -1.000000
vn 0.000000 0.000000 -1.000000
vn 0.000000 0.000000 -1.000000
vn 0.000000 -1.000000 0.000000
vn 0.000000 -1.000000 0.000000
vn 0.000000 -1.000000 0.000000
vn 0.000000 -1.000000 0.000000
vn 0.994142 -0.108083 0.000000
vn 0.994142 -0.108083 0.000000
vn 0.994142 -0.108083 0.000000
vn 0.994142 -0.108083 0.000000
vn -0.994142 0.108083 0.000000
vn -0.994142 0.108083 0.000000
vn -0.994140 0.108098 0.000000
vn -0.994140 0.108098 0.000000
vn 0.000000 0.000000 1.000000
vn 0.000000 0.000000 1.000000
vn 0.000000 0.000000 1.000000
vn 0.000000 0.000000 1.000000
vn 1.000000 0.000000 0.000000
vn 1.000000 0.000000 0.000000
vn 1.000000 0.000000 0.000000
vn 1.000000 0.000000 0.000000
vn 0.000000 0.000000 -1.000000
vn 0.000000 0.000000 -1.000000
vn 0.000000 0.000000 -1.000000
vn 0.000000 0.000000 -1.000000
vn -1.000000 0.000000 0.000000
vn -1.000000 0.000000 0.000000
vn -1.000000 0.000000 0.000000
vn -1.000000 0.000000 0.000000
vn 0.000000 -1.000000 0.000000
vn 0.000000 -1.000000 0.000000
vn 0.000000 -1.000000 0.000000
vn 0.000000 -1.000000 0.000000
vn 0.000000 0.000000 -1.000000
vn 0.000000 0.000000 -1.000000
vn 0.000000 0.000000 -1.000000
vn 0.000000 0.000000 -1.000000
vn 0.000000 1.000000 0.000000
vn 0.000000 1.000000 0.000000
vn 0.000000 1.000000 0.000000
vn 0.000000 1.000000 0.000000
vn 0.000000 0.000000 1.000000
vn 0.000000 0.000000 1.000000
vn 0.000000 0.000000 1.000000
vn 0.000000 0.000000 1.000000
vn 0.989805 -0.142429 0.000000
vn 0.989805 -0.142429 0.000000
vn 0.989805 -0.142429 0.000000
vn 0.989805 -0.142429 0.000000
vn 0.981866 0.000000 -0.189577
vn 0.981866 0.000000 -0.189577
vn 0.981866 0.000000 -0.189577
vn 0.981866 0.000000 -0.189577
vn 0.989805 0.142429 0.000000
vn 0.989805 0.142429 0.000000
vn 0.989805 0.142429 0.000000
vn 0.989805 0.142429 0.000000
vn 0.981866 0.000000 0.189577
vn 0.981866 0.000000 0.189577
vn 0.981866 0.000000 0.189577
vn 0.981866 0.000000 0.189577
vn 0.000000 -1.000000 0.000000
vn 0.000000 -1.000000 0.000000
vn 0.000000 -1.000000 0.000000
vn 0.000000 -1.000000 0.000000
vn 0.000000 0.000000 -1.000000
vn 0.000000 0.000000 -1.000000
vn 0.000000 0.000000 -1.000000
vn 0.000000 0.000000 -1.000000
vn 0.000000 1.000000 0.000000
vn 0.000000 1.000000 0.000000
vn 0.000000 1.000000 0.000000
vn 0.000000 1.000000 0.000000
vn 0.000000 0.000000 1.000000
vn 0.000000 0.000000 1.000000
vn 0.000000 0.000000 1.000000
vn 0.000000 0.000000 1.000000
vn 0.000000 0.000000 1.000000
vn 0.000000 0.000000 1.000000
vn 0.000000 0.000000 1.000000
vn 0.000000 0.000000 1.000000
vn 0.000000 1.000000 0.000000
vn 0.000000 1.000000 0.000000
vn 0.000000 1.000000 0.000000
vn 0.000000 1.000000 0.000000
vn 0.000000 0.000000 -1.000000
vn 0.000000 0.000000 -1.000000
vn 0.000000 0.000000 -1.000000
vn 0.000000 0.000000 -1.000000
vn 0.000000 -1.000000 0.000000
vn 0.000000 -1.000000 0.000000
vn 0.000000 -1.000000 0.000000
vn 0.000000 -1.000000 0.000000
vn 0.000000 0.000000 1.000000
vn 0.000000 0.000000 1.000000
vn 0.000000 1.000000 0.000000
vn 0.000000 1.000000 0.000000
vn 0.000000 0.000000 -1.000000
vn 0.000000 0.000000 -1.000000
vn 0.000000 0.000000 1.000000
vn 0.000000 0.000000 1.000000
vn 0.000000 0.000000 1.000000
vn 0.000000 0.000000 1.000000
vn -0.994099 0.108477 0.000000
vn -0.994099 0.108477 0.000000
vn -0.994086 0.108599 0.000000
vn -0.994086 0.108599 0.000000
vn 0.000000 0.000000 -1.000000
vn 0.000000 0.000000 -1.000000
vn 0.000000 0.000000 -1.000000
vn 0.000000 0.000000 -1.000000
vn 0.994086 -0.108599 0.000000
vn 0.994086 -0.108599 0.000000
vn 0.994086 -0.108599 0.000000
vn 0.994086 -0.108599 0.000000
vn 0.000000 -0.000000 1.000000
vn 0.000000 -0.000000 1.000000
vn 0.000000 -0.000000 1.000000
vn 0.000000 -0.000000 1.000000
vn -0.707860 0.706353 0.000000
vn -0.707860 0.706353 0.000000
vn -0.529439 0.848348 0.000000
vn -0.529439 0.848348 0.000000
vn 0.000000 -0.000000 -1.000000
vn 0.000000 -0.000000 -1.000000
vn 0.000000 -0.000000 -1.000000
vn 0.000000 -0.000000 -1.000000
vn 0.668668 -0.743562 0.000000
vn 0.668668 -0.743562 0.000000
vn 0.540729 -0.841197 0.000000
vn 0.540729 -0.841197 0.000000
vn 0.000000 0.000000 -1.000000
vn 0.000000 0.000000 -1.000000
vn -0.316768 0.948503 0.000000
vn -0.316768 0.948503 0.000000
vn 0.000000 0.000000 1.000000
vn 0.000000 0.000000 1.000000
vn 0.390079 -0.920782 0.000000
vn 0.390079 -0.920782 0.000000
vn -0.000000 0.000000 1.000000
vn 0.000000 0.000000 1.000000
vn 0.000000 1.000000 0.000000
vn 0.000000 1.000000 0.000000
vn 0.000000 0.000000 -1.000000
vn -0.000000 0.000000 -1.000000
vn -0.000001 -1.000000 0.000000
vn -0.000001 -1.000000 0.000000
vn -0.000001 -1.000000 0.000000
vn -0.000001 -1.000000 0.000000
vn 0.000000 -1.000000 0.000000
vn 0.000000 -1.000000 0.000000
vn 0.000000 -1.000000 0.000000
vn 0.000000 -1.000000 0.000000
vn 0.000000 -1.000000 0.000000
vn 0.000000 -1.000000 0.000000
vn 0.000000 -1.000000 0.000000
vn 0.000000 -1.000000 0.000000
vn -0.000001 -1.000000 -0.000001
vn -0.000001 -1.000000 -0.000001
vn -0.000001 -1.000000 -0.000001
vn -0.000001 -1.000000 -0.000001
vn 0.000000 -1.000000 0.000000
vn 0.000000 -1.000000 0.000000
vn 0.000000 -1.000000 0.000000
vn 0.000000 -1.000000 0.000000
vn -0.000001 -1.000000 0.000001
vn -0.000001 -1.000000 0.000001
vn -0.000001 -1.000000 0.000001
vn -0.000001 -1.000000 0.000001
vn -0.880727 -0.473624 0.000000
vn -0.880727 -0.473624 0.000000
vn -0.880727 -0.473624 0.000000
vn -0.880727 -0.473624 0.000000
vn 0.000000 0.000000 -1.000000
vn 0.000000 0.000000 -1.000000
vn 0.000000 0.000000 -1.000000
vn 0.000000 0.000000 -1.000000
vn 0.880727 0.473624 0.000000
vn 0.880727 0.473624 0.000000
vn 0.880727 0.473624 0.000000
vn 0.880727 0.473624 0.000000
vn 0.000000 0.000000 1.000000
vn 0.000000 0.000000 1.000000
vn 0.000000 0.000000 1.000000
vn 0.000000 0.000000 1.000000
s 1
g pCube1
usemtl initialShadingGroup
f 1/1/1 2/2/2 37/45/3 38/46/4
s off
f 9/15/5 10/16/6 11/17/7 12/18/8
s 2
f 39/48/9 40/49/10 8/8/11 7/7/12
s off
f 7/7/13 8/8/14 2/10/15 1/9/16
f 2/2/17 8/11/18 40/50/19 37/45/20
s 3
f 7/13/21 1/1/22 38/46/23 39/47/24
s off
f 3/3/25 4/4/26 10/16/27 9/15/28
f 21/27/29 22/28/30 23/29/31 24/30/32
f 6/6/33 5/5/34 12/18/35 11/17/36
f 5/5/37 3/3/38 9/15/39 12/18/40
f 4/4/41 6/6/42 48/60/43 45/57/44
s 4
f 6/6/45 11/17/46 47/59/47 48/60/48
s 5
f 11/17/49 10/16/50 46/58/51 47/59/52
s 6
f 10/16/53 4/4/54 45/57/55 46/58/56
s off
f 13/19/57 14/20/58 18/24/59 17/23/60
f 14/20/61 15/21/62 19/25/63 18/24/64
f 15/21/65 16/22/66 20/26/67 19/25/68
f 16/22/69 13/19/70 17/23/71 20/26/72
f 17/23/73 18/24/74 22/28/75 21/27/76
f 18/24/77 19/25/78 23/29/79 22/28/80
f 19/25/81 20/26/82 24/30/83 23/29/84
f 20/26/85 17/23/86 21/27/87 24/30/88
s 6
f 26/32/89 25/31/90 13/19/91 16/22/92
s 5
f 27/33/93 26/32/94 16/22/95 15/21/96
s 4
f 28/34/97 27/33/98 15/21/99 14/20/100
s off
f 25/31/101 28/34/102 14/20/103 13/19/104
s 6
f 30/36/105 29/35/106 25/31/90 26/32/89
s 5
f 31/37/107 30/36/108 26/32/94 27/33/93
s 4
f 32/38/109 31/37/110 27/33/98 28/34/97
s 1
f 34/40/111 33/39/112 4/4/113 3/3/114
s 3
f 35/41/115 34/40/116 3/3/117 5/14/118
s 2
f 5/5/119 6/6/120 36/43/121 35/42/122
s off
f 33/39/123 36/44/124 6/12/125 4/4/126
s 1
f 38/46/4 37/45/3 33/39/112 34/40/111
s 3
f 39/47/24 38/46/23 34/40/116 35/41/115
s 2
f 35/42/122 36/43/121 40/49/10 39/48/9
s 10
f 25/31/127 29/35/128 43/55/129 44/56/130
s 11
f 29/35/131 32/38/132 42/53/133 43/55/134
s 12
f 32/38/135 28/34/136 41/51/137 42/54/138
s 13
f 28/34/139 25/31/140 44/56/141 41/52/142
s 12
f 42/54/138 41/51/137 40/49/143 36/43/144
s 11
f 43/55/134 42/53/133 36/44/145 33/39/146
s 10
f 44/56/130 43/55/129 33/39/147 37/45/148
s 13
f 41/52/142 44/56/141 37/45/149 40/50/150
s 6
f 46/58/56 45/57/55 49/61/151 50/62/152
s 5
f 47/59/52 46/58/51 50/62/153 51/63/154
s 4
f 48/60/48 47/59/47 51/63/155 52/64/156
s off
f 58/69/157 57/70/158 59/71/159 60/72/160
s 6
f 50/62/152 49/61/151 29/35/106 30/36/105
s 5
f 51/63/154 50/62/153 30/36/108 31/37/107
s 4
f 52/64/156 51/63/155 31/37/110 32/38/109
s off
f 49/61/161 52/64/162 32/38/163 29/35/164
f 45/57/165 48/60/166 53/66/167 54/65/168
f 48/60/169 52/64/170 55/67/171 53/66/172
f 52/64/173 49/61/174 56/68/175 55/67/176
f 49/61/177 45/57/178 54/65/179 56/68/180
f 54/65/181 53/66/182 57/70/183 58/69/184
f 53/66/185 55/67/186 59/71/187 57/70/188
f 55/67/189 56/68/190 60/72/191 59/71/192
f 56/68/193 54/65/194 58/69/195 60/72/196
